PathFileType	4	(X/Y/Z)	LAnkleTrial15.trc
DataRate	CameraRate	NumFrames	NumMarkers	Units	OrigDataRate	OrigDataStartFrame	OrigNumFrames
50	100	5	33	m	100	17	       1001
Frame#	Time	R_Toe			R_Heel			Neck			R_Wrist			L_Shank_Superior			R_Midfoot_Superior			L_Midfoot_Superior			L_Toe			L_Shank_Inferior			L_Heel			L_Shoulder			R_Midfoot_Lateral			L_Patella			L_Thigh_Inferior			R_Shank_Lateral			R_Shank_Inferior			R_Shoulder			L_Shank_Lateral			R_Elbow			R_Thigh_Lateral			L_Wrist			Sternum			L_Elbow			L_Thigh_Superior			L_Asis			L_Thigh_Lateral			L_Midfoot_Lateral			R_Thigh_Superior			R_Shank_Superior			R_Thigh_Inferior			Sacral			R_Patella			R_Asis			
		X1	Y1	Z1	X2	Y2	Z2	X3	Y3	Z3	X4	Y4	Z4	X5	Y5	Z5	X6	Y6	Z6	X7	Y7	Z7	X8	Y8	Z8	X9	Y9	Z9	X10	Y10	Z10	X11	Y11	Z11	X12	Y12	Z12	X13	Y13	Z13	X14	Y14	Z14	X15	Y15	Z15	X16	Y16	Z16	X17	Y17	Z17	X18	Y18	Z18	X19	Y19	Z19	X20	Y20	Z20	X21	Y21	Z21	X22	Y22	Z22	X23	Y23	Z23	X24	Y24	Z24	X25	Y25	Z25	X26	Y26	Z26	X27	Y27	Z27	X28	Y28	Z28	X29	Y29	Z29	X30	Y30	Z30	X31	Y31	Z31	X32	Y32	Z32	X33	Y33	Z33

17	   0.320	    0.74648801433819	    0.04092194266606	    0.62226694129466	    0.44897901594341	    0.03788970891137	    0.59160330642098	    0.48767382284218	    1.48075774500232	    0.65498413683076	    0.62081943405418	    1.12769306105457	    1.19968479056408	    0.90072526152924	    0.55193676626030	    0.42859086393793	    0.62196251437100	    0.09081313254605	    0.61522317429106	    1.11530378770476	    0.31651493157798	    0.45209335198825	    1.21789705356540	    0.33730062467845	    0.52641975281597	    0.98550389352751	    0.41958932646491	    0.42330737661002	    1.00233698803800	    0.18224387490304	    0.39880878440354	    0.54410285074378	    1.47112317527316	    0.51837182619699	    0.53194969160855	    0.03040479950142	    0.65620499681054	    0.85943531328395	    0.65809050507914	    0.46788735562926	    0.79621648912180	    0.75058987175068	    0.46677817993238	    0.53102617946119	    0.34328122815000	    0.72456400498156	    0.58621576704254	    0.21494319269584	    0.64597746409096	    0.50822437101616	    1.43246962055366	    0.80002467564778	    0.86899119288861	    0.46402440433748	    0.35985048517667	    0.43888285015395	    1.16092736732313	    1.01169139458876	    0.58940464107487	    0.66125017149664	    0.76081356617194	    0.69296898885779	    1.30383220674636	    0.51468807404977	    0.62391253156651	    1.38232922390498	    0.66132447876935	    0.56859541637357	    1.18061570273987	    0.33447278199333	    0.73797468981072	    0.85553300357123	    0.47078342527827	    0.60182987076120	    0.99759413131711	    0.47497532640880	    0.70426540249683	    0.75584522124133	    0.40060241520996	    1.09917436533004	    0.21486947648986	    0.39614702131239	    0.68098788428000	    0.72000657450388	    0.71600962387618	    0.61888948794173	    0.38557018309619	    0.68290473898941	    0.66941697948070	    0.60632031575126	    0.69487660847262	    0.44440320762825	    0.98855080706574	    0.62130322822161	    0.65380291067899	    0.49431312220377	    0.67951119809533	    0.63023667029465	    0.98204999852183	    0.73527860298541
18	   0.340	    0.74648590537546	    0.04094181464045	    0.62227401367147	    0.44897452050596	    0.03787594272621	    0.59159940352158	    0.48822020635730	    1.48085502749271	    0.65495424201790	    0.62099368460913	    1.12796819435128	    1.19984293506118	    0.90012988159234	    0.55075146017628	    0.43051013126956	    0.62195546329043	    0.09080977021239	    0.61525175871811	    1.11468199880542	    0.31279238897408	    0.45583754528005	    1.21700288703034	    0.33033721955816	    0.53140551939602	    0.98446727858908	    0.41819102939082	    0.42570233914094	    0.99842110575501	    0.18185265335503	    0.40104120380864	    0.54471362073005	    1.47116922737076	    0.51834577454074	    0.53194660448912	    0.03039744549890	    0.65620413772209	    0.85902840876915	    0.65712133369164	    0.46959467207125	    0.79607328275557	    0.74983677356273	    0.46805030394034	    0.53087455996855	    0.34328986307601	    0.72461645790239	    0.58614453731636	    0.21494147405365	    0.64607188718910	    0.50866723320974	    1.43259596186208	    0.79998467786496	    0.86839525213024	    0.46303458821825	    0.36165474153665	    0.43914249552658	    1.16116088539689	    1.01173881155953	    0.58915949152103	    0.66121591431994	    0.76089540228616	    0.69342197939626	    1.30375839893165	    0.51471534061349	    0.62437415282673	    1.38232838707731	    0.66134471760014	    0.56901383783350	    1.18063667399796	    0.33445674622729	    0.73810779288081	    0.85500925548624	    0.47161001407170	    0.60218957487901	    0.99754875458317	    0.47503667302106	    0.70444841709524	    0.75528639741282	    0.40140890621572	    1.09616502227329	    0.21170260736833	    0.39951759035368	    0.68082638260115	    0.71991360821064	    0.71624196311709	    0.61878119698010	    0.38553951616645	    0.68300873038082	    0.66933640632036	    0.60627286571341	    0.69514721790889	    0.44454530088737	    0.98876487350441	    0.62114977669812	    0.65373667137184	    0.49429080067067	    0.67968106206823	    0.63023898170775	    0.98194306829307	    0.73538093920060
19	   0.360	    0.74648226356860	    0.04096254930747	    0.62227245080730	    0.44896807003634	    0.03786130390277	    0.59159678838694	    0.48878259028996	    1.48095314000924	    0.65492723724605	    0.62121686557093	    1.12828449478651	    1.19999893213654	    0.89948134652265	    0.54956290185538	    0.43235962585529	    0.62194197103761	    0.09080557249623	    0.61526313649955	    1.11396868599640	    0.30901968635662	    0.45942389705616	    1.21597069539778	    0.32331643441071	    0.53615107154240	    0.98337130758529	    0.41678171913206	    0.42799195402636	    0.99444324359607	    0.18152493585461	    0.40316856976058	    0.54534028468650	    1.47119556894179	    0.51832613432246	    0.53194207885141	    0.03038837724939	    0.65620282237306	    0.85858285479783	    0.65614293806742	    0.47124621627478	    0.79589999328782	    0.74907163071248	    0.46927207126092	    0.53072274141078	    0.34329314632224	    0.72469382125901	    0.58607084327662	    0.21493632679653	    0.64617966945834	    0.50911721970191	    1.43273141476367	    0.79995265495393	    0.86773094093594	    0.46204282700081	    0.36339555079383	    0.43941786490310	    1.16141376481666	    1.01181193604248	    0.58892528235686	    0.66117679667668	    0.76099011049034	    0.69388840267475	    1.30366299274466	    0.51477983588406	    0.62484394556730	    1.38231878843774	    0.66138553092529	    0.56945684059422	    1.18061369042173	    0.33448752218629	    0.73821684876811	    0.85447371942814	    0.47238968888447	    0.60253558505233	    0.99750561955724	    0.47511692429037	    0.70457078085412	    0.75469985407601	    0.40219043835744	    1.09301598579462	    0.20856567966166	    0.40271323486289	    0.68066866962237	    0.71982166919805	    0.71647479436336	    0.61867013010753	    0.38550363590236	    0.68312369449392	    0.66925137903647	    0.60622217576225	    0.69541269128023	    0.44467833364505	    0.98897286886331	    0.62103245949015	    0.65368007719344	    0.49426665001262	    0.67986498565063	    0.63023844373076	    0.98183559468897	    0.73550792740352
20	   0.380	    0.74647834296001	    0.04098334421117	    0.62226500856827	    0.44896053967943	    0.03784765433880	    0.59159555355444	    0.48935733260294	    1.48105088226881	    0.65491288689742	    0.62150312354543	    1.12863110696923	    1.20014699528934	    0.89879868166176	    0.54838852239552	    0.43412896187022	    0.62192398325904	    0.09080270086856	    0.61525909241715	    1.11318585801392	    0.30521185405292	    0.46282934541644	    1.21482331055838	    0.31624953064948	    0.54062055290644	    0.98224049394862	    0.41537870151627	    0.43016618501921	    0.99042954753660	    0.18129477293907	    0.40519568093575	    0.54597556799385	    1.47120876512666	    0.51831842122066	    0.53193624481856	    0.03037775937404	    0.65620095798646	    0.85811568279981	    0.65517359729064	    0.47282790754816	    0.79570610921357	    0.74830940081247	    0.47042546576927	    0.53057497205270	    0.34329416385446	    0.72479573677022	    0.58599479487853	    0.21492910624322	    0.64629934695457	    0.50957672079126	    1.43286744819982	    0.79993500327192	    0.86701418879897	    0.46106062496573	    0.36507058755024	    0.43971549572869	    1.16167810003555	    1.01191525586533	    0.58871984367757	    0.66113768023380	    0.76108928747632	    0.69436999836016	    1.30355945896367	    0.51488153953514	    0.62532241962408	    1.38230362908468	    0.66144791623524	    0.56992733662470	    1.18055771205419	    0.33456463258594	    0.73830401507063	    0.85393760989440	    0.47309878708571	    0.60286266125505	    0.99746556238079	    0.47520344116095	    0.70463571393340	    0.75409008299166	    0.40293854645181	    1.08974479659970	    0.20548945678368	    0.40571673048742	    0.68052896436451	    0.71973335154080	    0.71668960578362	    0.61855869469244	    0.38546558930629	    0.68324462569450	    0.66917146848112	    0.60617152554968	    0.69565710063722	    0.44481017823816	    0.98917517470194	    0.62095257187810	    0.65363558963552	    0.49424159965638	    0.68005347213898	    0.63025533501453	    0.98173257730666	    0.73564230656591
21	   0.400	    0.74647550430234	    0.04100533779784	    0.62225634252934	    0.44895272594429	    0.03783656228242	    0.59159588541952	    0.48994128052807	    1.48114737202941	    0.65492019458111	    0.62186555129043	    1.12899269421177	    1.20028174514187	    0.89810071664075	    0.54724460353883	    0.43580604869283	    0.62190433699112	    0.09080405568352	    0.61524511544116	    1.11236948035889	    0.30136422794517	    0.46603853030624	    1.21359182934584	    0.30909076032804	    0.54478331367276	    0.98110333746975	    0.41400308014500	    0.43221317223808	    0.98639434903564	    0.18121993580904	    0.40712313398189	    0.54661228260018	    1.47121697872219	    0.51832761728922	    0.53192931247884	    0.03036581332332	    0.65619868676809	    0.85764267854107	    0.65423053159066	    0.47432833016932	    0.79550081440871	    0.74756374366645	    0.47150000240850	    0.53043158662558	    0.34329676895851	    0.72492304146357	    0.58591458642300	    0.21492150488250	    0.64643332522695	    0.51004991086553	    1.43299620392826	    0.79993769235392	    0.86625777948099	    0.46009440108501	    0.36668486031489	    0.44004280299714	    1.16194506864396	    1.01205078648773	    0.58855142969028	    0.66110318125697	    0.76118939173483	    0.69486561451872	    1.30346005219009	    0.51501466014719	    0.62581033426015	    1.38228674530097	    0.66153036451687	    0.57041908466840	    1.18048325074453	    0.33468287678043	    0.73837266968795	    0.85341114785856	    0.47372669490916	    0.60316921986150	    0.99742896040762	    0.47528709253486	    0.70465021258723	    0.75346622521680	    0.40364746593249	    1.08635713133686	    0.20250076065627	    0.40851041352584	    0.68041664196447	    0.71965037881039	    0.71688317279143	    0.61844756196215	    0.38542728966550	    0.68337167488034	    0.66910428437868	    0.60612271623621	    0.69587862212095	    0.44494781759519	    0.98937258878711	    0.62090776527938	    0.65360485834684	    0.49421607884618	    0.68024516750607	    0.63030362025878	    0.98163803845863	    0.73577135332690
